<svg width="17" height="17" viewBox="0 0 17 17" fill="none" xmlns="http://www.w3.org/2000/svg">
<path d="M14.4514 2.47185C12.8641 0.876455 10.7477 0 8.49393 0C3.85316 0 0.0727012 3.78047 0.0686623 8.42124C0.0686623 9.90758 0.456402 11.3535 1.19149 12.6339L0 17L4.46709 15.8287C5.69897 16.4992 7.08433 16.8546 8.49393 16.8546H8.49796C13.1387 16.8546 16.9192 13.0741 16.9232 8.42932C16.9192 6.17962 16.0427 4.0632 14.4514 2.47185ZM8.49393 15.4288C7.23377 15.4288 6.00189 15.0896 4.92753 14.4514L4.67307 14.2979L2.02352 14.9926L2.73033 12.4077L2.56474 12.1411C1.86196 11.0264 1.49441 9.73794 1.49441 8.4172C1.49441 4.56403 4.63672 1.42172 8.49796 1.42172C10.368 1.42172 12.1249 2.15277 13.4497 3.47351C14.7705 4.79829 15.4975 6.55524 15.4975 8.42528C15.4934 12.2906 12.3511 15.4288 8.49393 15.4288ZM12.335 10.1863C12.1249 10.0813 11.091 9.57235 10.8971 9.49964C10.7032 9.43098 10.5619 9.39463 10.4245 9.60466C10.2832 9.81468 9.87929 10.2913 9.75812 10.4286C9.63695 10.57 9.51174 10.5861 9.30172 10.4811C9.09169 10.3761 8.41315 10.154 7.60939 9.43502C6.98336 8.87764 6.5633 8.18698 6.4381 7.97695C6.31693 7.76693 6.42598 7.65384 6.53099 7.54882C6.62389 7.45593 6.74102 7.30245 6.84603 7.18128C6.95104 7.06011 6.98739 6.97125 7.05606 6.82989C7.12472 6.68853 7.09241 6.56736 7.0399 6.46234C6.98739 6.35733 6.56734 5.31932 6.38963 4.89926C6.21999 4.48729 6.04632 4.54384 5.91707 4.5398C5.7959 4.53172 5.65454 4.53172 5.51318 4.53172C5.37181 4.53172 5.14563 4.58422 4.95176 4.79425C4.75789 5.00428 4.21667 5.51319 4.21667 6.5512C4.21667 7.58921 4.97196 8.58684 5.07697 8.7282C5.18198 8.86957 6.55927 10.9941 8.67164 11.9069C9.17247 12.125 9.56425 12.2542 9.87121 12.3512C10.3761 12.5127 10.8325 12.4885 11.196 12.436C11.5999 12.3754 12.44 11.9271 12.6177 11.4343C12.7914 10.9416 12.7914 10.5215 12.7389 10.4326C12.6864 10.3438 12.545 10.2913 12.335 10.1863Z" fill="#FF5715"/>
</svg>
